<?xml version="1.0" encoding="UTF-8" standalone="no"?>
<!-- Generator: Adobe Illustrator 16.0.0, SVG Export Plug-In . SVG Version: 6.00 Build 0)  -->

<svg
   xmlns:dc="http://purl.org/dc/elements/1.1/"
   xmlns:cc="http://creativecommons.org/ns#"
   xmlns:rdf="http://www.w3.org/1999/02/22-rdf-syntax-ns#"
   xmlns:svg="http://www.w3.org/2000/svg"
   xmlns="http://www.w3.org/2000/svg"
   xmlns:sodipodi="http://sodipodi.sourceforge.net/DTD/sodipodi-0.dtd"
   xmlns:inkscape="http://www.inkscape.org/namespaces/inkscape"
   version="1.1"
   id="Capa_1"
   x="0px"
   y="0px"
   width="256"
   height="256"
   viewBox="0 0 256 256"
   xml:space="preserve"
   sodipodi:docname="habits.svg"
   inkscape:version="0.92.4 (5da689c313, 2019-01-14)"><metadata
   id="metadata41"><rdf:RDF><cc:Work
       rdf:about=""><dc:format>image/svg+xml</dc:format><dc:type
         rdf:resource="http://purl.org/dc/dcmitype/StillImage" /><dc:title /></cc:Work></rdf:RDF></metadata><defs
   id="defs39">
	
</defs><sodipodi:namedview
   pagecolor="#ffffff"
   bordercolor="#666666"
   borderopacity="1"
   objecttolerance="10"
   gridtolerance="10"
   guidetolerance="10"
   inkscape:pageopacity="0"
   inkscape:pageshadow="2"
   inkscape:window-width="1920"
   inkscape:window-height="1016"
   id="namedview37"
   showgrid="false"
   inkscape:zoom="1.00975"
   inkscape:cx="-14.690099"
   inkscape:cy="-48.196748"
   inkscape:window-x="0"
   inkscape:window-y="27"
   inkscape:window-maximized="1"
   inkscape:current-layer="Capa_1" />
<path
   inkscape:connector-curvature="0"
   id="path2"
   d="m 234.19787,12.800108 c 0,0 -28.048,15.614523 -54.45682,17.868357 C -15.824906,47.364185 25.69375,193.00883 28.03582,194.07893 c 0,0 14.662514,-14.71387 30.828237,-21.01813 C 161.44237,133.06974 198.29089,65.299574 198.29089,65.299574 c 0,0 -42.6118,82.011826 -133.400957,115.839456 -20.050453,7.46518 -39.359821,33.8908 -52.089934,62.06097 0,0 13.228452,-1.62233 18.71115,-1.55342 5.50135,-12.51051 13.037193,-23.88285 23.105875,-33.14901 C 157.77319,249.68743 215.6785,173.26689 228.2596,144.58304 257.96671,76.835801 234.19787,12.8 234.19787,12.8 Z"
   style="fill:#63d863;fill-opacity:1;stroke-width:0.50771177" />
<g
   id="g6"
   transform="translate(0,-295.39099)">
</g>
<g
   id="g8"
   transform="translate(0,-295.39099)">
</g>
<g
   id="g10"
   transform="translate(0,-295.39099)">
</g>
<g
   id="g12"
   transform="translate(0,-295.39099)">
</g>
<g
   id="g14"
   transform="translate(0,-295.39099)">
</g>
<g
   id="g16"
   transform="translate(0,-295.39099)">
</g>
<g
   id="g18"
   transform="translate(0,-295.39099)">
</g>
<g
   id="g20"
   transform="translate(0,-295.39099)">
</g>
<g
   id="g22"
   transform="translate(0,-295.39099)">
</g>
<g
   id="g24"
   transform="translate(0,-295.39099)">
</g>
<g
   id="g26"
   transform="translate(0,-295.39099)">
</g>
<g
   id="g28"
   transform="translate(0,-295.39099)">
</g>
<g
   id="g30"
   transform="translate(0,-295.39099)">
</g>
<g
   id="g32"
   transform="translate(0,-295.39099)">
</g>
<g
   id="g34"
   transform="translate(0,-295.39099)">
</g>
</svg>