<?xml version="1.0" encoding="UTF-8" standalone="no"?>
<!-- Generator: Adobe Illustrator 16.0.0, SVG Export Plug-In . SVG Version: 6.00 Build 0)  -->

<svg
   xmlns:dc="http://purl.org/dc/elements/1.1/"
   xmlns:cc="http://creativecommons.org/ns#"
   xmlns:rdf="http://www.w3.org/1999/02/22-rdf-syntax-ns#"
   xmlns:svg="http://www.w3.org/2000/svg"
   xmlns="http://www.w3.org/2000/svg"
   xmlns:sodipodi="http://sodipodi.sourceforge.net/DTD/sodipodi-0.dtd"
   xmlns:inkscape="http://www.inkscape.org/namespaces/inkscape"
   version="1.1"
   id="Capa_1"
   x="0px"
   y="0px"
   width="22"
   height="22"
   viewBox="0 0 22 22"
   xml:space="preserve"
   sodipodi:docname="habits-active.svg"
   inkscape:version="0.92.4 (5da689c313, 2019-01-14)"><metadata
   id="metadata41"><rdf:RDF><cc:Work
       rdf:about=""><dc:format>image/svg+xml</dc:format><dc:type
         rdf:resource="http://purl.org/dc/dcmitype/StillImage" /><dc:title /></cc:Work></rdf:RDF></metadata><defs
   id="defs39">
	
</defs><sodipodi:namedview
   pagecolor="#ffffff"
   bordercolor="#666666"
   borderopacity="1"
   objecttolerance="10"
   gridtolerance="10"
   guidetolerance="10"
   inkscape:pageopacity="0"
   inkscape:pageshadow="2"
   inkscape:window-width="1920"
   inkscape:window-height="1016"
   id="namedview37"
   showgrid="false"
   inkscape:zoom="17.252525"
   inkscape:cx="-15.321429"
   inkscape:cy="5.9314988"
   inkscape:window-x="0"
   inkscape:window-y="27"
   inkscape:window-maximized="1"
   inkscape:current-layer="Capa_1" />
<path
   inkscape:connector-curvature="0"
   id="path2"
   d="m 20.218565,1.0000088 c 0,0 -2.434722,1.3554304 -4.727155,1.5510698 C -1.4848007,4.0003615 2.119249,16.643132 2.322554,16.736023 c 0,0 1.2727875,-1.277246 2.6760621,-1.824495 C 13.902984,11.440085 17.10164,5.5572584 17.10164,5.5572584 c 0,0 -3.698942,7.1190806 -11.5799444,10.0555096 C 3.7812049,16.260785 2.1050442,18.554675 1,21 1,21 2.1483033,20.859173 2.6242317,20.865156 3.1017795,19.779173 3.7559325,18.791989 4.6299501,17.987639 13.584478,21.563146 18.610981,14.929417 19.70309,12.4395 22.281832,6.5586595 20.218565,1 20.218565,1 Z"
   style="fill:#dcd8d0;fill-opacity:1;stroke-width:0.0440722" />
<g
   id="g6"
   transform="translate(0,-529.39099)">
</g>
<g
   id="g8"
   transform="translate(0,-529.39099)">
</g>
<g
   id="g10"
   transform="translate(0,-529.39099)">
</g>
<g
   id="g12"
   transform="translate(0,-529.39099)">
</g>
<g
   id="g14"
   transform="translate(0,-529.39099)">
</g>
<g
   id="g16"
   transform="translate(0,-529.39099)">
</g>
<g
   id="g18"
   transform="translate(0,-529.39099)">
</g>
<g
   id="g20"
   transform="translate(0,-529.39099)">
</g>
<g
   id="g22"
   transform="translate(0,-529.39099)">
</g>
<g
   id="g24"
   transform="translate(0,-529.39099)">
</g>
<g
   id="g26"
   transform="translate(0,-529.39099)">
</g>
<g
   id="g28"
   transform="translate(0,-529.39099)">
</g>
<g
   id="g30"
   transform="translate(0,-529.39099)">
</g>
<g
   id="g32"
   transform="translate(0,-529.39099)">
</g>
<g
   id="g34"
   transform="translate(0,-529.39099)">
</g>
</svg>